<?xml version="1.0" standalone="no"?>
<!DOCTYPE svg PUBLIC "-//W3C//DTD SVG 20010904//EN"
 "http://www.w3.org/TR/2001/REC-SVG-20010904/DTD/svg10.dtd">
<svg version="1.0" xmlns="http://www.w3.org/2000/svg"
 width="200.000000pt" height="200.000000pt" viewBox="0 0 200.000000 200.000000"
 preserveAspectRatio="xMidYMid meet">

<g transform="translate(0.000000,200.000000) scale(0.100000,-0.100000)"
fill="#000000" stroke="none">
<path d="M565 1660 c-6 -10 47 -172 225 -690 94 -271 89 -260 104 -259 6 0 67
73 136 162 135 174 339 440 354 462 10 14 -7 37 -106 148 -48 53 2 38 -423
127 -77 16 -169 36 -205 44 -78 19 -77 19 -85 6z m231 -75 c63 -14 165 -36
228 -50 62 -14 121 -25 130 -25 9 0 16 -4 16 -8 0 -10 -194 -202 -204 -202 -6
0 -306 300 -306 307 0 6 26 2 136 -22z m148 -344 c-2 -9 -10 -70 -19 -136 -28
-217 -38 -285 -42 -282 -8 9 -253 727 -253 743 0 5 71 -63 159 -150 100 -100
157 -164 155 -175z m369 118 c-10 -4 -72 -19 -138 -34 -66 -15 -129 -29 -140
-32 -11 -3 25 40 80 97 l100 101 58 -63 c51 -54 56 -63 40 -69z m7 -45 c0 -4
-62 -86 -137 -183 -75 -97 -162 -208 -192 -248 -31 -40 -59 -72 -62 -73 -3 0
-2 26 2 58 5 31 18 127 29 212 12 85 25 158 28 162 6 5 298 75 325 77 4 1 7
-2 7 -5z"/>
<path d="M420 531 l0 -151 25 0 25 0 0 100 c0 55 3 100 8 100 4 0 34 -44 68
-98 54 -86 64 -97 92 -100 l32 -3 0 150 0 151 -25 0 -25 0 0 -100 c0 -55 -3
-100 -7 -100 -5 1 -35 45 -68 98 -54 87 -64 97 -93 100 l-32 3 0 -150z"/>
<path d="M710 655 c0 -22 4 -25 40 -25 l40 0 0 -126 0 -125 26 3 25 3 2 120 2
120 43 3 c37 3 42 6 42 28 0 24 0 24 -110 24 l-110 0 0 -25z"/>
<path d="M973 602 c-22 -3 -23 -7 -23 -113 l0 -109 25 0 c24 0 25 2 25 66 0
78 10 100 48 109 24 5 28 10 24 30 -5 29 -19 31 -49 10 -16 -12 -22 -12 -25
-3 -2 7 -13 12 -25 10z"/>
<path d="M1155 597 c-38 -18 -60 -58 -58 -107 2 -51 17 -76 55 -96 78 -40 168
14 168 101 0 85 -85 138 -165 102z m90 -52 c14 -13 25 -35 25 -48 0 -31 -36
-77 -61 -77 -65 0 -81 121 -19 143 26 9 30 8 55 -18z"/>
<path d="M1440 593 c-17 -12 -25 -13 -28 -5 -2 7 -12 12 -22 12 -21 0 -27 -28
-26 -137 1 -76 2 -78 26 -78 24 0 25 3 26 65 1 94 8 110 50 110 44 0 57 -29
52 -115 -3 -59 -3 -60 25 -63 l29 -4 -4 97 c-3 87 -5 99 -27 116 -29 24 -69
24 -101 2z"/>
</g>
</svg>
